
      <svg width="44" height="44" viewBox="0 0 100 100" fill="none" xmlns="http://www.w3.org/2000/svg">
      <g opacity="0.5">
      <path fill-rule="evenodd" clip-rule="evenodd" d="M64.8637 54.9311H65.0874C65.2348 54.9311 65.3668 54.9109 65.3668 54.7375C65.3668 54.5838 65.2207 54.5597 65.0895 54.5597H64.8637V54.9311ZM64.6104 54.3843H65.1173C65.4423 54.3843 65.6208 54.4921 65.6208 54.7655C65.6208 54.9867 65.4867 55.0942 65.2642 55.1136L65.6287 55.6801H65.3705L65.0185 55.1223H64.8645V55.6801H64.6104V54.3843ZM65.9828 55.0348C65.9828 54.5007 65.576 54.1131 65.0738 54.1131C64.5707 54.1131 64.1651 54.5007 64.1651 55.0348C64.1651 55.5713 64.5707 55.9584 65.0738 55.9584C65.576 55.9584 65.9828 55.5713 65.9828 55.0348V55.0348ZM63.8717 55.032C63.8717 54.4027 64.4113 53.8899 65.0742 53.8899C65.7367 53.8899 66.2751 54.4027 66.2751 55.032C66.2751 55.6637 65.7367 56.1769 65.0742 56.1769C64.4113 56.1769 63.8717 55.6637 63.8717 55.032V55.032Z" fill="#4A4F63"/>
      <path fill-rule="evenodd" clip-rule="evenodd" d="M40.0256 43.8349C38.2286 43.8349 36.7065 44.9466 36.1727 46.4858C36.1598 46.5198 36.1482 46.5557 36.1374 46.5897L36.049 46.9208L33.7963 56.2068H39.4714C41.1671 56.2068 42.6108 55.1847 43.1599 53.7518L43.3741 52.8673L45.5654 43.8349H40.0256Z" fill="#4A4F63"/>
      <path fill-rule="evenodd" clip-rule="evenodd" d="M50.7298 40.7408C48.8739 40.7408 47.309 41.9275 46.8262 43.5465C46.7897 43.6678 46.7602 43.7911 46.737 43.9167L43.0049 59.3009H48.5447C50.4425 59.3009 52.0356 58.0592 52.4785 56.383V56.3838H52.481L56.2754 40.7408H50.7298Z" fill="#728091"/>
      <path fill-rule="evenodd" clip-rule="evenodd" d="M59.9437 43.8349C58.2103 43.8349 56.7317 44.8696 56.1506 46.3258C56.1211 46.3997 56.0178 46.7074 56.0178 46.7074L53.714 56.2068H59.2547C61.1587 56.2068 62.7551 54.9592 63.193 53.2754L63.1926 53.2762H63.193L65.4823 43.8349H59.9437Z" fill="#A9B2BE"/>
      </g>
      </svg>
      