<svg width="46" height="26" fill="none" xmlns="http://www.w3.org/2000/svg"><rect width="46" height="26" rx="13" fill="#DC2626"/><path d="M12.758 8.273h2.276l2.403 5.863h.103l2.403-5.863h2.276V17h-1.79v-5.68h-.072l-2.259 5.637h-1.219l-2.258-5.659h-.073V17h-1.79V8.273zm16.725 1.798h1.083c0 .722-.172 1.284-.516 1.688-.344.4-.896.6-1.658.6v-.724c.302 0 .53-.063.686-.188a.97.97 0 0 0 .32-.54c.057-.234.085-.512.085-.836zm-2.82 7.057c-.663 0-1.235-.14-1.718-.422a2.887 2.887 0 0 1-1.112-1.185c-.262-.508-.392-1.098-.392-1.768 0-.676.13-1.267.392-1.773a2.852 2.852 0 0 1 1.112-1.184c.483-.285 1.055-.427 1.717-.427.662 0 1.233.142 1.713.427.483.28.855.676 1.117 1.184.261.506.392 1.097.392 1.773 0 .67-.13 1.26-.392 1.768-.262.506-.634.9-1.117 1.185-.48.281-1.05.422-1.713.422zm.008-1.406c.3 0 .552-.086.754-.256.202-.173.354-.41.456-.707.105-.299.158-.638.158-1.019 0-.38-.053-.72-.158-1.018a1.585 1.585 0 0 0-.456-.708 1.117 1.117 0 0 0-.754-.26c-.304 0-.56.087-.767.26-.205.174-.36.41-.465.708a3.132 3.132 0 0 0-.153 1.018c0 .38.051.72.153 1.018.105.299.26.535.465.708.207.17.463.256.767.256zm-.66-6.111.903-1.94h1.679l-1.3 1.94H26.01zM31.286 17v-6.546h1.815V17h-1.815zm.912-7.39a.986.986 0 0 1-.695-.268.87.87 0 0 1-.285-.652c0-.25.095-.464.285-.643a.978.978 0 0 1 .695-.273c.27 0 .5.091.69.273.193.179.29.393.29.643 0 .253-.097.47-.29.652a.971.971 0 0 1-.69.269z" fill="#fff"/></svg>