<svg width="48" height="30" viewBox="0 0 48 30" fill="none" xmlns="http://www.w3.org/2000/svg">
<rect x="0.5" y="0.5" width="47" height="29" rx="3.5" fill="white"/>
<rect x="0.5" y="0.5" width="47" height="29" rx="3.5" stroke="#E1E4E6"/>
<path d="M12.1489 11.5273C11.5182 11.5273 10.9401 11.7376 10.4759 12.0879C10.0117 11.7376 9.42482 11.5273 8.80292 11.5273C7.25255 11.5273 6 12.7799 6 14.3215V18.9726H8.14599V14.2952C8.14599 13.9449 8.42628 13.6646 8.77664 13.6646C9.12701 13.6646 9.4073 13.9449 9.4073 14.2952V18.9726H11.5533V14.2952C11.5533 13.9449 11.8336 13.6646 12.1839 13.6646C12.5343 13.6646 12.8146 13.9449 12.8146 14.2952V18.9726H14.9606V14.3215C14.9431 12.7799 13.6905 11.5273 12.1489 11.5273Z" fill="#A50064"/>
<path d="M38.2774 11.5273C36.219 11.5273 34.5547 13.1916 34.5547 15.25C34.5547 17.3084 36.219 18.9726 38.2774 18.9726C40.3358 18.9726 42 17.3084 42 15.25C42 13.1916 40.3358 11.5273 38.2774 11.5273ZM38.2774 16.8354C37.4015 16.8354 36.692 16.1259 36.692 15.25C36.692 14.3741 37.4015 13.6646 38.2774 13.6646C39.1533 13.6646 39.8628 14.3741 39.8628 15.25C39.854 16.1259 39.1445 16.8354 38.2774 16.8354Z" fill="#A50064"/>
<path d="M30.6832 11.5273C30.0525 11.5273 29.4744 11.7376 29.0102 12.0879C28.546 11.7376 27.9591 11.5273 27.3372 11.5273C25.7956 11.5273 24.5431 12.7799 24.5431 14.3215V18.9726H26.689V14.2952C26.689 13.9449 26.9693 13.6646 27.3197 13.6646C27.6701 13.6646 27.9504 13.9449 27.9504 14.2952V18.9726H30.0963V14.2952C30.0963 13.9449 30.3766 13.6646 30.727 13.6646C31.0774 13.6646 31.3577 13.9449 31.3577 14.2952V18.9726H33.5036V14.3215C33.4774 12.7799 32.2248 11.5273 30.6832 11.5273Z" fill="#A50064"/>
<path d="M19.7343 11.5273C17.6759 11.5273 16.0117 13.1916 16.0117 15.25C16.0117 17.3084 17.6759 18.9726 19.7343 18.9726C21.7927 18.9726 23.4569 17.3084 23.4569 15.25C23.4569 13.1916 21.7927 11.5273 19.7343 11.5273ZM19.7343 16.8354C18.8584 16.8354 18.1489 16.1259 18.1489 15.25C18.1489 14.3741 18.8584 13.6646 19.7343 13.6646C20.6102 13.6646 21.3197 14.3741 21.3197 15.25C21.3197 16.1259 20.6102 16.8354 19.7343 16.8354Z" fill="#A50064"/>
</svg>
